<svg enable-background="new 0 0 64 64" height="240" viewBox="0 0 64 64" width="512" xmlns="http://www.w3.org/2000/svg"><g id="Icons"><g><g><path d="m54 20h-2.684c.442-1.251.684-2.597.684-4 0-6.627-5.373-12-12-12-6.215 0-11.327 4.725-11.939 10.779-1.467-1.702-3.638-2.779-6.061-2.779-4.418 0-8 3.582-8 8h-4c-3.314 0-6 2.686-6 6s2.686 6 6 6h44c3.314 0 6-2.686 6-6s-2.686-6-6-6z" fill="#00a0c8"/></g><g><path d="m49 29h-.284c-.492 0-.896-.361-.982-.846-.156-.883-.382-1.742-.676-2.568-.165-.462.004-.973.429-1.218l.235-.136c.478-.276.642-.888.366-1.366l-1-1.732c-.276-.478-.888-.642-1.366-.366l-.247.143c-.427.247-.96.136-1.279-.24-.57-.673-1.194-1.297-1.867-1.867-.376-.319-.487-.852-.24-1.279l.143-.247c.276-.478.112-1.09-.366-1.366l-1.732-1c-.478-.276-1.09-.112-1.366.366l-.136.235c-.245.425-.756.594-1.218.429-.826-.294-1.685-.52-2.568-.676-.485-.086-.846-.49-.846-.982v-.284c0-.552-.448-1-1-1h-2c-.552 0-1 .448-1 1v.284c0 .492-.361.896-.846.982-.883.156-1.742.382-2.568.676-.462.165-.973-.004-1.218-.429l-.136-.235c-.276-.478-.888-.642-1.366-.366l-1.732 1c-.478.276-.642.888-.366 1.366l.143.247c.247.427.136.96-.24 1.279-.673.57-1.297 1.194-1.867 1.867-.319.376-.852.486-1.279.24l-.247-.143c-.478-.276-1.09-.112-1.366.366l-1 1.732c-.276.478-.112 1.09.366 1.366l.235.136c.425.245.594.756.429 1.218-.294.827-.52 1.685-.676 2.568-.086.485-.49.846-.982.846h-.284c-.552 0-1 .448-1 1v2h36v-2c0-.552-.448-1-1-1z" fill="#0082aa"/></g><g><g><path d="m50 33v-2c0-.552-.448-1-1-1h-.284c-.492 0-.896-.361-.982-.846-.156-.883-.382-1.742-.676-2.568-.165-.462.004-.973.429-1.218l.235-.136c.478-.276.642-.888.366-1.366l-1-1.732c-.276-.478-.888-.642-1.366-.366l-.247.143c-.427.247-.96.136-1.279-.24-.57-.673-1.194-1.297-1.867-1.867-.376-.319-.487-.852-.24-1.279l.143-.247c.276-.478.112-1.09-.366-1.366l-1.732-1c-.478-.276-1.09-.112-1.366.366l-.136.235c-.245.425-.756.594-1.218.429-.826-.294-1.685-.52-2.568-.676-.485-.086-.846-.49-.846-.982v-.284c0-.552-.448-1-1-1h-2c-.552 0-1 .448-1 1v.284c0 .492-.361.896-.846.982-.883.156-1.742.382-2.568.676-.462.165-.973-.004-1.218-.429l-.136-.235c-.276-.478-.888-.642-1.366-.366l-1.732 1c-.478.276-.642.888-.366 1.366l.143.247c.247.427.136.96-.24 1.279-.673.57-1.297 1.194-1.867 1.867-.319.376-.852.487-1.279.24l-.247-.143c-.478-.276-1.09-.112-1.366.366l-1 1.732c-.276.478-.112 1.09.366 1.366l.235.136c.425.245.594.756.429 1.218-.294.826-.52 1.685-.676 2.568-.086.485-.49.846-.982.846h-.284c-.552 0-1 .448-1 1v2c0 .552.448 1 1 1h.284c.492 0 .896.361.982.846.156.883.382 1.742.676 2.568.165.462-.004.973-.429 1.218l-.235.136c-.478.276-.642.888-.366 1.366l1 1.732c.276.478.888.642 1.366.366l.247-.143c.427-.247.96-.136 1.279.24.57.673 1.194 1.297 1.867 1.867.376.319.487.852.24 1.279l-.143.247c-.276.478-.112 1.09.366 1.366l1.732 1c.478.276 1.09.112 1.366-.366l.136-.235c.245-.425.756-.594 1.218-.429.826.294 1.685.52 2.568.676.485.086.846.49.846.982v.284c0 .552.448 1 1 1h2c.552 0 1-.448 1-1v-.284c0-.492.361-.896.846-.982.883-.156 1.742-.382 2.568-.676.462-.165.973.004 1.218.429l.136.235c.276.478.888.642 1.366.366l1.732-1c.478-.276.642-.888.366-1.366l-.143-.247c-.247-.427-.136-.96.24-1.279.673-.57 1.297-1.194 1.867-1.867.319-.376.852-.487 1.279-.24l.247.143c.478.276 1.09.112 1.366-.366l1-1.732c.276-.478.112-1.09-.366-1.366l-.235-.136c-.425-.245-.594-.756-.429-1.218.294-.826.52-1.685.676-2.568.086-.485.49-.846.982-.846h.284c.552 0 1-.448 1-1z" fill="#fab400"/></g><g><circle cx="32" cy="33" fill="#dc9600" r="14"/></g><g><circle cx="32" cy="32" fill="#0a5078" r="14"/></g><g fill="#f0f0f0"><path d="m25.937 27.648c-.147-.389-.52-.648-.937-.648s-.79.259-.937.648l-3 8c-.194.518.068 1.094.585 1.288.519.193 1.094-.068 1.288-.585l.507-1.351h3.114l.507 1.352c.15.401.531.648.936.648.117 0 .235-.021.351-.063.517-.194.779-.771.585-1.288zm-1.744 5.352.807-2.152.807 2.152z"/><path d="m36 27h-4c-.552 0-1 .447-1 1v8c0 .553.448 1 1 1s1-.447 1-1v-3h3c1.654 0 3-1.346 3-3s-1.346-3-3-3zm0 4h-3v-2h3c.551 0 1 .448 1 1s-.449 1-1 1z"/><path d="m42 27c-.552 0-1 .447-1 1v8c0 .553.448 1 1 1s1-.447 1-1v-8c0-.553-.448-1-1-1z"/></g></g><path d="m19.707 49.293-3-3c-.391-.391-1.023-.391-1.414 0l-3 3c-.286.286-.372.716-.217 1.09s.52.617.924.617h1v8c0 .552.448 1 1 1h2c.552 0 1-.448 1-1v-8h1c.404 0 .769-.243.924-.617s.069-.804-.217-1.09z" fill="#00a0c8"/><path d="m52.924 55.617c-.155-.374-.52-.617-.924-.617h-1v-8c0-.552-.448-1-1-1h-2c-.552 0-1 .448-1 1v8h-1c-.404 0-.769.243-.924.617s-.069.804.217 1.09l3 3c.195.195.451.293.707.293s.512-.098.707-.293l3-3c.286-.286.372-.716.217-1.09z" fill="#c80a50"/></g></g></svg>