<?xml version="1.0" standalone="no"?>
<!DOCTYPE svg PUBLIC "-//W3C//DTD SVG 1.0//EN" "http://www.w3.org/TR/2001/REC-SVG-20010904/DTD/svg10.dtd">
<svg xmlns="http://www.w3.org/2000/svg" xmlns:xlink="http://www.w3.org/1999/xlink" id="body_1" width="240" height="180">

<g transform="matrix(0.234375 0 0 0.234375 0 0)">
	<g transform="matrix(1.4998125 0 0 1.4998125 127.999985 -0)">
	</g>
    <path transform="matrix(1.4998125 0 0 1.4998125 127.999985 -0)"  d="M39.721 0L392.824 0C 412.324 0 428.134 15.81 428.134 35.31L428.134 35.31L428.134 317.793C 428.134 337.293 412.324 353.103 392.824 353.103L392.824 353.103L39.721 353.103C 20.221 353.103 4.4109993 337.293 4.4109993 317.793L4.4109993 317.793L4.4109993 35.31C 4.411 15.81 20.212 0 39.721 0z" stroke="none" fill="#87CED9" fill-rule="nonzero" />
	<g transform="matrix(1.4998125 0 0 1.4998125 127.999985 -0)">
	</g>
    <path transform="matrix(1.4998125 0 0 1.4998125 127.999985 -0)"  d="M30.893 26.483L48.548 26.483L48.548 44.138L30.893 44.138L30.893 26.483z" stroke="none" fill="#4398D1" fill-rule="nonzero" />
	<g transform="matrix(1.4998125 0 0 1.4998125 127.999985 -0)">
	</g>
    <path transform="matrix(1.4998125 0 0 1.4998125 127.999985 -0)"  d="M66.204 26.483L83.859 26.483L83.859 44.138L66.204 44.138L66.204 26.483z" stroke="none" fill="#4398D1" fill-rule="nonzero" />
	<g transform="matrix(1.4998125 0 0 1.4998125 127.999985 -0)">
	</g>
    <path transform="matrix(1.4998125 0 0 1.4998125 127.999985 -0)"  d="M101.514 26.483L119.169 26.483L119.169 44.138L101.514 44.138L101.514 26.483z" stroke="none" fill="#4398D1" fill-rule="nonzero" />
	<g transform="matrix(1.4998125 0 0 1.4998125 127.999985 -0)">
	</g>
    <path transform="matrix(1.4998125 0 0 1.4998125 127.999985 -0)"  d="M92.687 70.621L445.79 70.621C 465.29 70.621 481.1 86.431 481.1 105.931L481.1 105.931L481.1 388.414C 481.1 407.914 465.29 423.724 445.79 423.724L445.79 423.724L92.687 423.724C 73.187 423.724 57.376995 407.914 57.376995 388.414L57.376995 388.414L57.376995 105.931C 57.376 86.431 73.178 70.621 92.687 70.621z" stroke="none" fill="#4398D1" fill-rule="nonzero" />
	<g transform="matrix(1.4998125 0 0 1.4998125 127.999985 -0)">
	</g>
    <path transform="matrix(1.4998125 0 0 1.4998125 127.999985 -0)"  d="M445.79 70.621L403.85 70.621C 340.583 272.05798 219.433 373.866 135.56201 423.724L135.56201 423.724L445.79 423.724C 465.29 423.724 481.1 407.914 481.1 388.414L481.1 388.414L481.1 105.931C 481.1 86.431 465.29 70.621 445.79 70.621z" stroke="none" fill="#3F8FC4" fill-rule="nonzero" />
	<g transform="matrix(1.4998125 0 0 1.4998125 127.999985 -0)">
	</g>
    <path transform="matrix(1.4998125 0 0 1.4998125 127.999985 -0)"  d="M83.859 97.103L101.514 97.103L101.514 114.757996L83.859 114.757996L83.859 97.103z" stroke="none" fill="#87CED9" fill-rule="nonzero" />
	<g transform="matrix(1.4998125 0 0 1.4998125 127.999985 -0)">
	</g>
    <path transform="matrix(1.4998125 0 0 1.4998125 127.999985 -0)"  d="M119.169 97.103L136.824 97.103L136.824 114.757996L119.169 114.757996L119.169 97.103z" stroke="none" fill="#87CED9" fill-rule="nonzero" />
	<g transform="matrix(1.4998125 0 0 1.4998125 127.999985 -0)">
	</g>
    <path transform="matrix(1.4998125 0 0 1.4998125 127.999985 -0)"  d="M154.48 97.103L172.135 97.103L172.135 114.757996L154.48 114.757996L154.48 97.103z" stroke="none" fill="#87CED9" fill-rule="nonzero" />
	<g transform="matrix(1.4998125 0 0 1.4998125 127.999985 -0)">
	</g>
    <path transform="matrix(1.4998125 0 0 1.4998125 127.999985 -0)"  d="M83.859 353.103L454.618 353.103L454.618 370.758L83.859 370.758L83.859 353.103z" stroke="none" fill="#3685BA" fill-rule="nonzero" />
	<g transform="matrix(1.4998125 0 0 1.4998125 127.999985 -0)">
	</g>
    <path transform="matrix(1.4998125 0 0 1.4998125 127.999985 -0)"  d="M101.514 282.483L119.169 282.483L119.169 335.449L101.514 335.449L101.514 282.483z" stroke="none" fill="#3685BA" fill-rule="nonzero" />
	<g transform="matrix(1.4998125 0 0 1.4998125 127.999985 -0)">
	</g>
    <path transform="matrix(1.4998125 0 0 1.4998125 127.999985 -0)"  d="M136.824 229.517L154.479 229.517L154.479 335.448L136.824 335.448L136.824 229.517z" stroke="none" fill="#3685BA" fill-rule="nonzero" />
	<g transform="matrix(1.4998125 0 0 1.4998125 127.999985 -0)">
	</g>
    <path transform="matrix(1.4998125 0 0 1.4998125 127.999985 -0)"  d="M172.135 256L189.79 256L189.79 335.448L172.135 335.448L172.135 256z" stroke="none" fill="#3685BA" fill-rule="nonzero" />
	<g transform="matrix(1.4998125 0 0 1.4998125 127.999985 -0)">
	</g>
    <path transform="matrix(1.4998125 0 0 1.4998125 127.999985 -0)"  d="M207.445 194.207L225.1 194.207L225.1 335.448L207.445 335.448L207.445 194.207z" stroke="none" fill="#3685BA" fill-rule="nonzero" />
	<g transform="matrix(1.4998125 0 0 1.4998125 127.999985 -0)">
	</g>
    <path transform="matrix(1.4998125 0 0 1.4998125 127.999985 -0)"  d="M242.756 176.552L260.411 176.552L260.411 335.449L242.756 335.449L242.756 176.552z" stroke="none" fill="#3685BA" fill-rule="nonzero" />
	<g transform="matrix(1.4998125 0 0 1.4998125 127.999985 -0)">
	</g>
    <path transform="matrix(1.4998125 0 0 1.4998125 127.999985 -0)"  d="M278.066 185.379L295.721 185.379L295.721 247.172L278.066 247.172L278.066 185.379z" stroke="none" fill="#3685BA" fill-rule="nonzero" />
	<g transform="matrix(1.4998125 0 0 1.4998125 127.999985 -0)">
	</g>
    <path transform="matrix(1.4998125 0 0 1.4998125 127.999985 -0)"  d="M313.376 150.069L331.031 150.069L331.031 247.172L313.376 247.172L313.376 150.069z" stroke="none" fill="#3685BA" fill-rule="nonzero" />
	<g transform="matrix(1.4998125 0 0 1.4998125 127.999985 -0)">
	</g>
    <path transform="matrix(1.4998125 0 0 1.4998125 127.999985 -0)"  d="M348.687 132.414L366.342 132.414L366.342 247.173L348.687 247.173L348.687 132.414z" stroke="none" fill="#3685BA" fill-rule="nonzero" />
	<g transform="matrix(1.4998125 0 0 1.4998125 127.999985 -0)">
	</g>
    <path transform="matrix(1.4998125 0 0 1.4998125 127.999985 -0)"  d="M383.997 167.724L401.652 167.724L401.652 335.448L383.997 335.448L383.997 167.724z" stroke="none" fill="#3685BA" fill-rule="nonzero" />
	<g transform="matrix(1.4998125 0 0 1.4998125 127.999985 -0)">
	</g>
    <path transform="matrix(1.4998125 0 0 1.4998125 127.999985 -0)"  d="M419.307 203.034L436.962 203.034L436.962 335.448L419.307 335.448L419.307 203.034z" stroke="none" fill="#3685BA" fill-rule="nonzero" />
	<g transform="matrix(1.4998125 0 0 1.4998125 127.999985 -0)">
	</g>
    <path transform="matrix(1.4998125 0 0 1.4998125 127.999985 -0)"  d="M507.65942 485.57895L481.175 512.06335L375.24292 406.1313L401.7273 379.64688L507.65942 485.57895z" stroke="none" fill="#FDB62F" fill-rule="nonzero" />
	<g transform="matrix(1.4998125 0 0 1.4998125 127.999985 -0)">
	</g>
    <path transform="matrix(1.4998125 0 0 1.4998125 127.999985 -0)"  d="M436.9729 414.92654L410.48846 441.41095L375.17804 406.1005L401.6624 379.6161L436.9729 414.92654z" stroke="none" fill="#FA962A" fill-rule="nonzero" />
	<g transform="matrix(1.4998125 0 0 1.4998125 127.999985 -0)">
	</g>
    <path transform="matrix(1.4998125 0 0 1.4998125 127.999985 -0)"  d="M436.963 335.448C 436.963 303.75818 425.75897 276.70923 403.3509 254.30113C 380.9428 231.89305 353.89383 220.68901 322.204 220.689C 290.5142 220.68901 263.46524 231.89305 241.05714 254.30113C 218.64906 276.70923 207.445 303.75818 207.445 335.448C 207.445 367.13782 218.64906 394.18677 241.05714 416.59485C 263.46524 439.00296 290.5142 450.207 322.204 450.207C 353.89383 450.207 380.9428 439.00296 403.3509 416.59485C 425.75897 394.18677 436.963 367.13782 436.963 335.448" stroke="none" fill="#FDB62F" fill-rule="nonzero" />
	<g transform="matrix(1.4998125 0 0 1.4998125 127.999985 -0)">
	</g>
    <path transform="matrix(1.4998125 0 0 1.4998125 127.999985 -0)"  d="M401.652 335.448C 401.652 313.50903 393.89542 294.78296 378.38223 279.26978C 362.86905 263.7566 344.14297 256 322.204 256C 300.26505 256 281.53897 263.7566 266.0258 279.26978C 250.5126 294.78296 242.75601 313.50903 242.75601 335.448C 242.75601 357.38696 250.5126 376.11304 266.0258 391.62622C 281.53897 407.13943 300.26505 414.89603 322.204 414.896C 344.14297 414.89603 362.86905 407.13943 378.38223 391.62622C 393.89542 376.11304 401.652 357.38696 401.652 335.448" stroke="none" fill="#87CED9" fill-rule="nonzero" />
	<g transform="matrix(1.4998125 0 0 1.4998125 127.999985 -0)">
	</g>
    <path transform="matrix(1.4998125 0 0 1.4998125 127.999985 -0)"  d="M244.795 353.103C 246.19 359.221 248.308 365.14398 251.116 370.758L251.116 370.758L393.293 370.758C 396.1 365.14398 398.219 359.22 399.614 353.103L399.614 353.103L244.795 353.103z" stroke="none" fill="#4398D1" fill-rule="nonzero" />
	<g transform="matrix(1.4998125 0 0 1.4998125 127.999985 -0)">
	</g>
    <path transform="matrix(1.4998125 0 0 1.4998125 127.999985 -0)"  d="M331.031 335.448L331.031 256.521C 325.169 255.82399 319.237 255.82399 313.376 256.521L313.376 256.521L313.376 335.448L331.031 335.448z" stroke="none" fill="#4398D1" fill-rule="nonzero" />
	<g transform="matrix(1.4998125 0 0 1.4998125 127.999985 -0)">
	</g>
    <path transform="matrix(1.4998125 0 0 1.4998125 127.999985 -0)"  d="M295.721 335.448L295.721 260.617C 289.489 262.797 283.565 265.746 278.066 269.4L278.066 269.4L278.066 335.448L295.721 335.448z" stroke="none" fill="#4398D1" fill-rule="nonzero" />
	<g transform="matrix(1.4998125 0 0 1.4998125 127.999985 -0)">
	</g>
    <path transform="matrix(1.4998125 0 0 1.4998125 127.999985 -0)"  d="M366.342 335.448L366.342 269.4C 360.842 265.745 354.919 262.797 348.687 260.617L348.687 260.617L348.687 335.448L366.342 335.448z" stroke="none" fill="#4398D1" fill-rule="nonzero" />
	<g transform="matrix(1.4998125 0 0 1.4998125 127.999985 -0)">
	</g>
    <path transform="matrix(1.4998125 0 0 1.4998125 127.999985 -0)"  d="M260.411 285.564C 248.97002 299.66998 242.738 317.29 242.75601 335.449L242.75601 335.449L260.411 335.449L260.411 285.564z" stroke="none" fill="#4398D1" fill-rule="nonzero" />
	<g transform="matrix(1.4998125 0 0 1.4998125 127.999985 -0)">
	</g>
    <path transform="matrix(1.4998125 0 0 1.4998125 127.999985 -0)"  d="M383.997 335.448L401.652 335.448C 401.67 317.29 395.437 299.66998 383.997 285.563L383.997 285.563L383.997 335.448z" stroke="none" fill="#4398D1" fill-rule="nonzero" />
</g>
</svg>